<svg width="15" height="14" viewBox="0 0 15 14" fill="none" xmlns="http://www.w3.org/2000/svg">
<path d="M0.078125 1.68652C0.078125 1.22031 0.241851 0.835691 0.569289 0.53267C0.896727 0.229636 1.32241 0.078125 1.84632 0.078125C2.36087 0.078125 2.77718 0.2273 3.09528 0.525677C3.42271 0.83337 3.58644 1.23429 3.58644 1.72847C3.58644 2.17603 3.4274 2.54898 3.10931 2.84736C2.78187 3.15505 2.35151 3.30889 1.81825 3.30889H1.80422C1.28966 3.30889 0.873348 3.15505 0.555256 2.84736C0.237164 2.53966 0.078125 2.15271 0.078125 1.68652ZM0.260557 13.9243V4.58162H3.37594V13.9243H0.260557ZM5.10203 13.9243H8.21742V8.7075C8.21742 8.38115 8.25484 8.1294 8.32968 7.95225C8.46066 7.63523 8.65947 7.36716 8.9261 7.14806C9.19273 6.92894 9.52718 6.81938 9.92948 6.81938C10.9773 6.81938 11.5012 7.52334 11.5012 8.93127V13.9243H14.6166V8.56764C14.6166 7.18768 14.2891 6.14106 13.6343 5.42778C12.9794 4.71449 12.114 4.35785 11.0381 4.35785C9.83124 4.35785 8.89101 4.87533 8.21742 5.91029V5.93827H8.20338L8.21742 5.91029V4.58162H5.10203C5.12074 4.87999 5.1301 5.80772 5.1301 7.36484C5.1301 8.92194 5.12074 11.1084 5.10203 13.9243Z" fill="white"/>
</svg>
